<svg width="25" height="26" viewBox="0 0 25 26" fill="none" xmlns="http://www.w3.org/2000/svg">
<circle cx="12.5" cy="13.25" r="12.5" fill="#7B4AE2" fill-opacity="0.2"/>
<path d="M8 17.6667V9.13333C8 8.3866 8 8.01323 8.14533 7.72801C8.27315 7.47713 8.47713 7.27315 8.72801 7.14533C9.01323 7 9.3866 7 10.1333 7H15.2C15.9467 7 16.3201 7 16.6053 7.14533C16.8562 7.27315 17.0602 7.47713 17.188 7.72801C17.3333 8.01323 17.3333 8.3866 17.3333 9.13333V16.3333H9.33333C8.59695 16.3333 8 16.9303 8 17.6667ZM8 17.6667C8 18.4031 8.59695 19 9.33333 19H17.3333M16.6667 16.3333V19M14.3333 10.3333V10.2778C14.3333 9.57208 13.7613 9 13.0555 9H12.3333C11.5969 9 11 9.59695 11 10.3333C11 11.0697 11.5969 11.6667 12.3333 11.6667H13C13.7364 11.6667 14.3333 12.2636 14.3333 13C14.3333 13.7364 13.7364 14.3333 13 14.3333H12.3055C11.5845 14.3333 11 13.7488 11 13.0278V13" stroke="#7B4AE2" stroke-linecap="round" stroke-linejoin="round"/>
</svg>
